<svg xmlns="http://www.w3.org/2000/svg" width="32" height="32"><path d="M8.00001 5.33301L24 5.33301C26.933 5.33302 29.333 7.73302 29.333 10.666L29.333 21.333C29.333 24.266 26.933 26.666 24 26.666L8.00001 26.666C5.06701 26.666 2.66701 24.266 2.66701 21.333L2.66701 10.666C2.66701 7.73301 5.06701 5.33301 8.00001 5.33301ZM24 24C24.7067 23.9979 25.3838 23.7162 25.8835 23.2165C26.3832 22.7168 26.6649 22.0397 26.667 21.333L26.667 10.666C26.667 9.19902 25.467 7.99902 24 7.99902L8.00001 7.99901C6.53301 7.99901 5.33301 9.19901 5.33301 10.666L5.33301 21.333C5.33301 22.8 6.53301 24 8.00001 24L24 24Z"/><path d="M15.333 25.333L12.666 25.333L12.666 6.66601L15.333 6.66601L15.333 25.333Z"/><path d="M13 25L5 25L5 7L13 7L13 25Z" fill-opacity="0.4"/></svg>
